<svg id="Capa_1" enable-background="new 0 0 512.011 512.011" height="512" viewBox="0 0 512.011 512.011" width="512" xmlns="http://www.w3.org/2000/svg"><g><g><g><circle cx="102.089" cy="173.303" fill="#ffc7ab" r="46.799"/></g><g><circle cx="409.923" cy="173.303" fill="#ffc7ab" r="46.799"/></g><g><ellipse cx="256.006" cy="166.333" fill="#fce7ca" rx="150.967" ry="135.667"/></g><g><path d="m299.006 365 90.068 28.499c3.265-10.363 5.692-21.215 7.125-32.48 3.681-28.936.49-56.922-8.148-81.825-8.11-23.378-32.17-37.46-56.53-33.113-27.657 4.935-56.032 14.719-83.572 29.301z" fill="#76e7e7"/></g><g><path d="m175.038 166.333c0-64.098 49.469-117.807 115.967-131.994-11.234-2.397-22.95-3.673-35-3.673-83.377 0-150.967 60.74-150.967 135.667s67.59 135.667 150.967 135.667c12.05 0 23.766-1.276 35-3.673-66.498-14.187-115.967-67.896-115.967-131.994z" fill="#ffc7ab"/></g><g><path d="m311.01 305.72c-41.197-31.9-86.759-51.83-130.519-59.639-24.36-4.347-48.42 9.735-56.53 33.113-8.639 24.903-11.829 52.889-8.148 81.825 11.249 88.435 82.406 152.234 158.933 142.5 56.143-7.141 99.635-51.769 114.35-110.013-18.672-31.833-45.028-62.189-78.086-87.786z" fill="#b0f0ef"/></g><g><path d="m341.088 466.837c-76.528 9.734-147.685-54.065-158.933-142.5-3.429-26.957-.889-53.088 6.459-76.671-2.714-.574-5.422-1.103-8.123-1.586-24.36-4.347-48.42 9.735-56.53 33.113-8.639 24.903-11.829 52.889-8.148 81.825 11.249 88.435 82.406 152.234 158.933 142.5 29.147-3.707 54.87-17.536 74.942-38.111-2.834.567-5.696 1.061-8.6 1.43z" fill="#93ecea"/></g><g><g><g><ellipse cx="173.797" cy="189.75" fill="#ffa1ac" rx="30.333" ry="24.156"/></g><g><ellipse cx="338.214" cy="189.75" fill="#ffa1ac" rx="30.333" ry="24.156"/></g></g><g><path d="m205.913 170.963c-4.142 0-7.5-3.357-7.5-7.5 0-3.825-3.112-6.938-6.938-6.938s-6.938 3.112-6.938 6.938c0 4.143-3.358 7.5-7.5 7.5s-7.5-3.357-7.5-7.5c0-12.097 9.841-21.938 21.938-21.938s21.938 9.841 21.938 21.938c0 4.143-3.358 7.5-7.5 7.5z"/></g><g><path d="m334.974 170.963c-4.142 0-7.5-3.357-7.5-7.5 0-3.825-3.112-6.938-6.938-6.938s-6.938 3.112-6.938 6.938c0 4.143-3.358 7.5-7.5 7.5s-7.5-3.357-7.5-7.5c0-12.097 9.841-21.938 21.938-21.938s21.938 9.841 21.938 21.938c0 4.143-3.358 7.5-7.5 7.5z"/></g><g><path d="m256.006 194.816c-8.037 0-15.68-3.48-20.969-9.549-2.722-3.122-2.396-7.859.726-10.581 3.123-2.723 7.86-2.397 10.582.726 2.44 2.799 5.961 4.404 9.662 4.404s7.222-1.605 9.661-4.404c2.721-3.123 7.458-3.448 10.582-.727 3.123 2.722 3.448 7.459.726 10.582-5.29 6.069-12.933 9.549-20.97 9.549z"/></g></g></g><path d="m409.923 119.004c-1.425 0-2.855.063-4.278.174-3.923-10.175-9.104-19.963-15.53-29.163-2.373-3.396-7.049-4.227-10.443-1.854-3.396 2.372-4.226 7.047-1.854 10.443 14.167 20.283 21.656 43.703 21.656 67.728 0 28.652-10.818 56.554-30.537 79.028-11.753-6.656-25.469-9.029-38.733-6.664-24.942 4.452-49.894 12.601-74.177 24.217-24.104-11.54-49.102-19.735-74.218-24.217-13.264-2.363-26.981.008-38.733 6.664-19.722-22.478-30.537-50.364-30.537-79.028 0-70.671 64.359-128.166 143.467-128.166 14.138 0 27.964 1.822 41.148 5.331-4 9.47-13.382 16.134-24.292 16.134-7.161 0-13.86-2.822-18.862-7.948-2.894-2.965-7.642-3.023-10.606-.129-2.964 2.893-3.022 7.641-.129 10.605 7.849 8.042 18.36 12.472 29.597 12.472 17.592 0 32.644-11.046 38.61-26.562 16.929 6.34 32.488 15.62 45.872 27.553 3.091 2.757 7.832 2.486 10.589-.606 2.756-3.092 2.485-7.832-.607-10.589-15.443-13.77-33.487-24.329-53.114-31.321-.049-12.069-5.338-23.474-14.534-31.314-3.153-2.685-7.886-2.311-10.573.843-2.687 3.152-2.31 7.886.842 10.573 4.638 3.953 7.71 9.331 8.811 15.211-13.751-3.459-28.103-5.252-42.752-5.252-69.099 0-128.001 40.168-149.625 96.012-1.428-.112-2.862-.174-4.292-.174-29.94 0-54.299 24.358-54.299 54.299s24.358 54.299 54.299 54.299c3.433 0 6.845-.328 10.193-.964 5.046 9.825 11.329 19.15 18.775 27.769-6.35 6.219-11.239 13.844-14.182 22.329-9.259 26.692-12.2 56.164-8.502 85.229 5.157 40.549 22.908 78.05 49.983 105.597 2.904 2.953 7.652 2.996 10.606.091 2.954-2.903 2.995-7.652.091-10.606-24.789-25.22-41.055-59.659-45.801-96.974-3.407-26.783-.711-53.9 7.794-78.42 6.849-19.742 27.538-31.865 48.126-28.188 44.291 7.903 88.291 28.023 127.244 58.185 30.259 23.431 56.007 52.074 74.627 82.989-15.082 55.364-56.895 95.036-107.246 101.439-28.541 3.635-57.011-3.421-82.337-20.394-3.441-2.307-8.1-1.386-10.406 2.056-2.306 3.44-1.386 8.1 2.055 10.405 23.502 15.75 49.496 23.866 76.016 23.866 5.504 0 11.032-.35 16.564-1.053 57.409-7.302 104.776-52.684 120.676-115.616.097-.383.154-.771.189-1.16.245-.452.463-.925.615-1.438 2.962-9.978 5.138-20.333 6.466-30.78 3.697-29.065.757-58.537-8.502-85.229-2.944-8.485-7.833-16.111-14.184-22.33 7.445-8.618 13.733-17.942 18.778-27.769 3.348.636 6.761.966 10.192.966 29.94 0 54.299-24.358 54.299-54.299s-24.355-54.3-54.295-54.3zm-307.834 93.598c-21.669 0-39.299-17.629-39.299-39.299 0-21.509 17.371-39.028 38.82-39.287-2.663 10.388-4.071 21.206-4.071 32.316 0 15.781 2.894 31.335 8.427 46.059-1.286.126-2.578.211-3.877.211zm286.67 147.47c-.634 4.983-1.48 9.94-2.522 14.838-18.72-27.882-42.866-53.619-70.635-75.121-13.66-10.577-27.926-19.972-42.606-28.114 19.72-8.515 39.798-14.635 59.842-18.212 20.589-3.673 41.278 8.444 48.126 28.187 8.506 24.52 11.201 51.638 7.795 78.422zm21.164-147.47c-1.299 0-2.592-.083-3.878-.209 5.534-14.727 8.428-30.285 8.428-46.06 0-10.955-1.399-21.786-4.089-32.316 21.457.25 38.837 17.772 38.837 39.287 0 21.669-17.629 39.298-39.298 39.298z"/></g></svg>