<svg id="Capa_1" enable-background="new 0 0 512 512" height="512" viewBox="0 0 512 512" width="512" xmlns="http://www.w3.org/2000/svg"><g><g><path d="m179.46 491.506c-29.934-13.312-42.118-35.365-44.916-59.068l160.018-105.213h54.364s9.766 15.935 17.995 38.265l-43.001 94.772z" fill="#ffb2c1"/><path d="m197.475 391.06-62.931 41.377c2.798 23.703 14.982 45.756 44.916 59.068l81.754-17.682c-25.047-23.261-46.689-51.71-63.739-82.763z" fill="#ff9db0"/><path d="m294.562 327.225c-33.336 36.062-85.681 79.41-160.018 105.213-5.841-49.087 28.53-105.213 28.53-105.213z" fill="#ffc9d3"/><path d="m256 504.5c-33.397 0-58.279-4.868-76.54-12.994 93.48-28.847 154.187-85.743 187.462-126.016 19.234 52.109 30.158 139.01-110.922 139.01z" fill="#ffc9d3"/><path d="m304.666 9.907c-20.745 7.94-29.975 20.123-29.975 20.123l14.039 58.32h48.814c11.74-15.444 15.745-30.799 16.063-44.129.607-25.498-25.121-43.43-48.941-34.314z" fill="#fd5f7e"/><path d="m207.334 9.907c20.745 7.94 29.975 20.123 29.975 20.123l-14.039 58.32h-48.814c-11.74-15.444-15.745-30.799-16.063-44.129-.607-25.498 25.121-43.43 48.941-34.314z" fill="#fd5f7e"/><path d="m256 24.162c-18.076 0-32.73 14.653-32.73 32.729v30.311h65.459v-30.31c.001-18.076-14.653-32.73-32.729-32.73z" fill="#ff748f"/><circle cx="404.072" cy="211.953" fill="#ffcabd" r="42.213"/><path d="m170.155 327.224h-7.082s-34.371 56.127-28.53 105.213c25.364-8.804 48.163-19.653 68.525-31.556-13.751-23.259-24.895-48.196-32.913-73.657z" fill="#ffb2c1"/><circle cx="256" cy="211.953" fill="#ffdcce" r="148.072"/><path d="m223.958 67.368c-52.764 11.641-94.961 51.421-110.048 102.801-1.955-.278-3.95-.43-5.982-.43-23.314 0-42.213 18.899-42.213 42.213s18.9 42.213 42.213 42.213c2.033 0 4.031-.152 5.988-.43 9.724 33.112 30.702 61.41 58.518 80.461-10.793-31.873-16.719-64.74-16.719-96.316 0-66.113 25.96-126.163 68.243-170.512z" fill="#ffcabd"/><g><g><g><ellipse cx="175.682" cy="220.046" fill="#ff9db0" rx="29.636" ry="23.601"/></g><g><ellipse cx="336.318" cy="220.046" fill="#ff9db0" rx="29.636" ry="23.601"/></g></g></g><path d="m249.381 462.191c-20.897 11.276-44.157 21.364-69.921 29.315 18.261 8.126 43.143 12.994 76.54 12.994 15.26 0 28.734-1.021 40.619-2.9-16.893-10.995-32.727-24.323-47.238-39.409z" fill="#ffb2c1"/></g><g><path d="m178.848 201.868c4.142 0 7.5-3.358 7.5-7.5 0-3.643 2.963-6.606 6.606-6.606s6.606 2.963 6.606 6.606c0 4.142 3.358 7.5 7.5 7.5 4.143 0 7.5-3.358 7.5-7.5 0-11.913-9.692-21.606-21.606-21.606-11.913 0-21.606 9.692-21.606 21.606 0 4.142 3.358 7.5 7.5 7.5z"/><path d="m304.94 201.868c4.143 0 7.5-3.358 7.5-7.5 0-3.643 2.964-6.606 6.606-6.606s6.606 2.963 6.606 6.606c0 4.142 3.358 7.5 7.5 7.5s7.5-3.358 7.5-7.5c0-11.913-9.692-21.606-21.606-21.606s-21.606 9.692-21.606 21.606c0 4.142 3.358 7.5 7.5 7.5z"/><path d="m256 225.171c7.902 0 15.417-3.422 20.617-9.39 2.722-3.123 2.396-7.86-.727-10.581s-7.86-2.396-10.582.727c-2.351 2.697-5.743 4.244-9.309 4.244-3.565 0-6.958-1.547-9.309-4.245-2.722-3.123-7.459-3.447-10.582-.727-3.123 2.722-3.448 7.459-.727 10.582 5.203 5.968 12.717 9.39 20.619 9.39z"/><path d="m403.429 261.657c27.639.38 50.354-22.031 50.354-49.701 0-27.646-22.688-50.08-50.354-49.701-10.341-30.594-29.961-56.947-55.489-75.712 8.377-13.08 12.807-27.22 13.162-42.139.735-30.781-30.304-52.523-59.118-41.497-14.257 5.457-23.631 12.845-28.697 17.671-10.762-5.144-23.512-5.289-34.576 0-5.066-4.825-14.44-12.214-28.697-17.671-28.783-11.018-59.852 10.679-59.118 41.497.356 14.919 4.786 29.059 13.163 42.139-25.528 18.765-45.148 45.117-55.489 75.712-27.638-.379-50.354 22.031-50.354 49.701 0 27.649 22.693 50.081 50.355 49.701 8.866 26.228 24.551 49.339 44.93 67.225-3.331 6.092-8.778 16.749-13.891 29.876-10.869 27.898-15.078 52.983-12.513 74.559v.007c0 .002.001.004.001.005 3.566 30.184 20.158 52.062 49.314 65.029.002.001.004.001.006.002 20.342 9.051 47.117 13.64 79.582 13.64 57.178 0 96.041-14.165 115.509-42.103 22.662-32.521 13.841-76.136 2.449-106.998 0 0 0 0 0-.001-5.589-15.165-11.792-27.35-15.45-34.024 20.375-17.885 36.057-40.993 44.921-67.217zm4.286-84.224c17.435 1.827 31.068 16.612 31.068 34.523s-13.633 32.696-31.068 34.523c5.155-22.791 5.085-46.596 0-69.046zm-100.368-160.517c18.548-7.099 39.25 6.638 38.761 27.131-.286 12.012-3.856 23.473-10.629 34.156-12.53-7.468-25.972-13.018-39.25-16.558-.152-11.797-.564-18.936-8.037-28.847-.813-1.086-1.676-2.137-2.6-3.14 4.286-3.7 11.442-8.795 21.755-12.742zm-28.316 29.7c1.909 4.268 2.169 7.479 2.198 11.813-16.121-2.628-33.415-2.789-50.459 0 .062-9.322 2.807-16.409 10.446-21.959 13.005-9.437 31.446-4.376 37.815 10.146zm-102.51 31.587c-6.771-10.683-10.342-22.144-10.629-34.156-.49-20.53 20.26-34.211 38.761-27.131 10.302 3.943 17.461 9.042 21.751 12.745-1.37 1.489-2.732 3.215-4.028 5.186-6.152 9.369-6.574 16.313-6.605 26.797-13.625 3.639-26.99 9.252-39.25 16.559zm-72.235 168.276c-17.435-1.827-31.069-16.613-31.069-34.523s13.634-32.696 31.069-34.523c-5.119 22.519-5.115 46.515 0 69.046zm16.549-73.177c20.002-69.841 90.928-114.195 164.101-98.916 78.863 16.567 128.829 97.001 106.231 176.217-17.465 60.994-75.247 105.202-142.639 101.724-90.033-4.738-152.477-92.312-127.693-179.025zm225.769 165.125c3.102 5.847 7.541 14.843 11.744 25.61-9.414 11.146-20.113 22.465-31.416 33.057-3.022 2.832-3.176 7.579-.344 10.601 2.531 2.698 6.722 3.186 9.805.984 2.534-1.792 17.416-16.699 27.629-28.256 7.782 25.896 11.449 57.553-4.818 80.898-16.499 23.675-51.221 35.679-103.204 35.679-20.287 0-38.061-1.856-53.115-5.532 40.179-14.926 77.765-36.353 111.551-63.64 3.222-2.603 3.724-7.325 1.121-10.547-2.603-3.221-7.324-3.724-10.547-1.122-36.139 29.187-78.238 52.485-125.061 67.312-20.802-9.975-32.977-25.097-37.046-46.048 12.127-4.428 24.437-9.656 35.265-14.846 3.736-1.79 5.313-6.269 3.523-10.004s-6.268-5.314-10.005-3.523c-10.207 4.89-20.016 9.021-30.303 12.933-.395-33.349 16.155-68.678 24.027-83.558 20.999 15.037 46.826 25.483 74.864 28.311-13.216 10.195-27.434 19.861-42.944 28.806-3.588 2.07-4.819 6.656-2.75 10.244s6.655 4.82 10.244 2.75c20.953-12.086 41.191-26.5 58.598-41.19 5.047-.239 10.104-.73 15.025-1.445 24.112-3.461 47.411-12.553 68.157-27.474z"/></g></g></svg>