<svg id="Capa_1" enable-background="new 0 0 512 512" height="512" viewBox="0 0 512 512" width="512" xmlns="http://www.w3.org/2000/svg"><g><g><path d="m287.955 218.813c0-74.162-60.111-134.273-134.243-134.273-74.162 0-134.263 60.111-134.263 134.273 0 65.405 46.769 119.861 108.691 131.811v39.503h-20.567c-14.102 0-25.552 11.44-25.552 25.541 0 14.132 11.45 25.571 25.552 25.571h20.567v37.702c0 14.102 11.45 25.551 25.572 25.551 7.036 0 13.441-2.852 18.075-7.477 4.624-4.624 7.466-11.019 7.466-18.075v-37.7h20.567c14.132 0 25.572-11.44 25.572-25.571 0-14.102-11.44-25.541-25.572-25.541h-20.567v-39.503c61.932-11.951 108.702-66.406 108.702-131.812zm-134.243 87.034c-48.08 0-87.033-38.983-87.033-87.033 0-48.08 38.953-87.053 87.033-87.053 48.05 0 87.033 38.973 87.033 87.053 0 48.05-38.983 87.033-87.033 87.033z" fill="#fe93bb"/></g><g><path d="m162.875 441.243h16.389v37.689c0 7.062-2.859 13.448-7.486 18.075s-11.022 7.486-18.075 7.486c-.234 0-.468 0-.702-.018 2.903-2.613 5.977-5.173 7.374-8.947 1.174-3.172.69-6.782.69-10.089v-39.419c0-2.638-.829-4.777 1.81-4.777z" fill="#fe76a8"/></g><g><path d="m225.376 416.405c-.385 13.921-12.158 24.838-26.084 24.838h-9.068c9.912 0 17.554-9.42 16.499-19.09-.661-6.057-2.902-10.518-8.453-13.268-5.067-2.511-10.591-3.408-16.207-3.408-.039 0-16.2 0-16.2 0-2.638 0-4.777-2.139-4.777-4.777v-38.191c0-4.113 2.814-7.677 6.806-8.666 3.716-.921 7.788-1.999 11.373-3.224v39.503h20.562c14.353-.001 25.948 11.838 25.549 26.283z" fill="#fe76a8"/></g><g><path d="m287.963 218.801c0 58.825-37.83 108.795-90.486 126.939 30.928-20.505 64.176-50.475 67.922-111.351 4.555-74.013-35.589-119.411-109.066-132.859-13.045-2.388-44.97-4.678-62.028-3.178 17.91-8.838 38.073-13.812 59.397-13.812 74.153.001 134.261 60.108 134.261 134.261z" fill="#fe76a8"/></g><g><path d="m466.392 255.33h-.07c-14.452 0-26.162 11.71-26.162 26.152l-55.467-55.467c-2.362-2.372-2.752-6.035-.991-8.877 33.358-54.025 25.882-126.106-22.449-172.005-53.564-50.882-138.636-50.042-191.25 1.822-54.426 53.665-54.666 141.299-.701 195.254 45.989 45.999 116.438 52.604 169.473 19.857 2.842-1.761 6.516-1.371 8.877.991l55.467 55.467c-7.226 0-13.762 2.932-18.496 7.656-4.724 4.744-7.656 11.279-7.656 18.506v.07c0 14.442 11.71 26.162 26.152 26.162h73.502c8.797 0 15.933-7.136 15.933-15.933v-73.502c0-14.443-11.71-26.153-26.162-26.153zm-134.893-45.468c-35.86 35.86-93.989 35.86-129.849 0s-35.86-93.989 0-129.849 93.989-35.86 129.849 0 35.86 93.989 0 129.849z" fill="#6bd9e7"/></g><path d="m361.16 45.31c-53.52-50.84-138.52-50-191.09 1.82-16.1 15.88-27.46 34.73-34.06 54.8 6.72-14.39 15.253-23.956 27.233-35.777 52.57-51.82 137.57-52.66 191.09-1.82 40.04 38.02 52.837 90.137 36.767 138.927 24.28-51.94 14.31-115.93-29.94-157.95z" fill="#2ed1e2"/><path d="m376.763 232.239c-1.72 2.632-1.344 6.096.868 8.332.012.013.025.025.037.038 3.685 3.729 7.37 7.458 11.055 11.187 7.37 7.459 14.745 14.912 22.112 22.375 5.38 5.45 10.76 10.89 16.13 16.33 8.83 8.93 19.027 11.93 26.837 1.05 2.128-2.964 3.453-6.58 6.026-9.221 6.338-6.505 17.046.174 17.127 8.401v80.08c8.55-.27 15.4-7.29 15.4-15.91v-73.43c0-14.437-11.703-26.14-26.14-26.14h-.07c-14.44 0-26.14 11.7-26.14 26.13l-55.42-55.42c-.867-.87-1.467-1.914-1.794-3.028z" fill="#2ed1e2"/><g><path d="m466.394 247.819h-.073c-13.284 0-24.795 7.735-30.268 18.937l-45.856-45.857c17.131-27.83 24.362-61.106 20.364-93.722-4.077-33.256-19.752-64.327-44.138-87.49-27.323-25.953-63.254-40.077-101.224-39.679-37.944.367-73.621 15.142-100.462 41.604-10.967 10.813-19.99 23.062-26.911 36.323-70.72 7.923-125.883 68.072-125.883 140.878 0 32.31 11.16 63.918 31.423 89.001 2.604 3.224 7.329 3.728 10.556 1.122 3.225-2.605 3.728-7.331 1.122-10.556-18.113-22.421-28.088-50.678-28.088-79.567 0-62.004 44.747-113.739 103.639-124.638-4.224 11.334-7.025 23.223-8.298 35.451-36.733 12.982-63.124 48.058-63.124 89.187 0 52.13 42.411 94.54 94.539 94.54 27.254 0 51.841-11.602 69.109-30.114 9.004 2.857 18.299 4.846 27.752 5.888 2.697.297 5.398.511 8.1.656-18.324 27.087-46.928 46.927-80.842 53.471-3.532.681-6.084 3.773-6.084 7.37v39.504c0 4.146 3.36 7.506 7.506 7.506h20.567c9.961 0 18.065 8.091 18.065 18.035 0 9.961-8.104 18.065-18.065 18.065h-20.567c-4.146 0-7.506 3.36-7.506 7.506v37.702c0 4.837-1.871 9.371-5.262 12.763-3.414 3.406-7.95 5.283-12.773 5.283-9.962 0-18.065-8.095-18.065-18.045v-37.703c0-4.146-3.36-7.506-7.506-7.506h-20.567c-9.951 0-18.045-8.104-18.045-18.065 0-9.944 8.095-18.035 18.045-18.035h20.567c4.146 0 7.506-3.36 7.506-7.506v-39.504c0-3.597-2.552-6.689-6.084-7.37-18.301-3.531-35.248-10.904-50.374-21.912-3.35-2.439-8.046-1.702-10.485 1.652-2.44 3.351-1.701 8.046 1.652 10.485 15.232 11.086 32.121 18.877 50.28 23.205v25.938h-13.061c-18.228 0-33.058 14.825-33.058 33.047 0 18.239 14.83 33.078 33.058 33.078h13.061v30.195c0 18.228 14.839 33.058 33.078 33.058 8.827 0 17.13-3.434 23.384-9.674 6.232-6.233 9.664-14.538 9.664-23.384v-30.195h13.061c18.239 0 33.078-14.839 33.078-33.078 0-18.222-14.839-33.047-33.078-33.047h-13.063v-25.94c38.689-9.24 70.649-34.11 89.68-67.038 23.34-1.609 46.152-8.808 66.098-21.086l45.857 45.858c-11.203 5.476-18.938 17.003-18.938 30.34 0 18.561 15.102 33.663 33.664 33.663h73.501c12.922 0 23.435-10.513 23.435-23.435v-73.502c0-18.561-15.101-33.663-33.663-33.663zm-312.683 50.522c-43.851 0-79.527-35.676-79.527-79.528 0-32.4 19.481-60.307 47.33-72.694.301 38.311 15.34 74.264 42.476 101.402 12.571 12.57 27.343 22.659 43.415 29.846-14.159 13-33.002 20.974-53.694 20.974zm331.334 56.643c0 4.644-3.779 8.422-8.422 8.422h-73.501c-10.284 0-18.651-8.366-18.651-18.724 0-10.284 8.367-18.65 18.651-18.65 3.036 0 5.773-1.829 6.935-4.634s.52-6.033-1.626-8.181l-55.471-55.471c-2.831-2.831-6.565-4.295-10.347-4.295-2.669 0-5.364.729-7.782 2.223-24.487 15.123-53.823 21.712-82.611 18.531-29.64-3.269-56.478-16.167-77.611-37.301-24.69-24.689-38.218-57.515-38.095-92.432.124-34.913 13.891-67.646 38.764-92.169 49.205-48.512 130.719-49.308 180.808-1.732 21.866 20.77 35.922 48.625 39.575 78.432 3.594 29.313-2.921 59.211-18.346 84.187-3.608 5.845-2.756 13.3 2.072 18.129l55.47 55.47c2.147 2.146 5.374 2.788 8.181 1.626 2.805-1.161 4.634-3.899 4.634-6.935 0-10.284 8.366-18.65 18.65-18.65h.073c10.284 0 18.65 8.366 18.65 18.65z"/><path d="m355.864 122.201c-4.088.689-6.844 4.561-6.155 8.649 4.532 26.895-4.259 54.448-23.517 73.705-9.013 9.014-19.581 15.54-30.845 19.611.068-1.778.114-3.56.114-5.352 0-59.901-37.337-111.238-89.953-131.97.484-.508.951-1.026 1.449-1.524 32.873-32.873 86.362-32.873 119.235 0 4.909 4.909 9.192 10.386 12.729 16.279 2.134 3.555 6.744 4.705 10.3 2.572 3.554-2.134 4.706-6.745 2.572-10.3-4.168-6.943-9.21-13.392-14.985-19.168-38.728-38.726-101.74-38.726-140.468 0-38.726 38.727-38.726 101.74 0 140.468 19.364 19.363 44.798 29.045 70.234 29.045s50.87-9.682 70.234-29.045c22.685-22.686 33.041-55.14 27.704-86.815-.688-4.088-4.552-6.843-8.648-6.155zm-173.554 22.419c29.757 11.514 50.929 40.415 50.929 74.193 0 1.175-.034 2.342-.087 3.504-9.516-4.097-18.434-10.002-26.194-17.763-16.518-16.517-24.729-38.238-24.648-59.934zm65.571 82.486c.239-2.734.37-5.498.37-8.293 0-41.627-27.039-77.044-64.467-89.64 1.983-10.5 5.974-20.687 11.957-29.954 49.287 17.38 84.707 64.424 84.707 119.593 0 3.122-.125 6.219-.351 9.293-10.685 1.724-21.634 1.39-32.216-.999z"/></g></g></svg>