<svg width="80" height="42" viewBox="0 0 80 42" fill="none" xmlns="http://www.w3.org/2000/svg">
<g clip-path="url(#clip0_2523_14646)">
<path d="M11.4855 2.67199C11.2146 3.19087 10.7735 3.60084 10.2362 3.83318C9.69889 4.06552 9.09806 4.10612 8.5344 3.94816C8.1456 3.83648 7.74246 3.78272 7.33799 3.78863C6.5005 3.78863 5.38385 4.2672 5.38385 5.26421C5.38385 6.26122 6.62014 6.66002 7.41775 6.93918L8.57428 7.29811C11.007 8.01595 12.8814 9.25224 12.8814 12.0837C12.8814 13.8385 12.4826 15.5932 11.0867 16.7896C9.68153 17.8985 7.93083 18.4774 6.14157 18.4247C3.93734 18.4118 1.79145 17.715 0 16.4307L0 16.3908L1.95414 12.7617C3.07079 13.7587 4.42672 14.5563 5.98205 14.5563C7.05882 14.5563 8.17547 14.0379 8.17547 12.8016C8.17547 11.5653 6.38086 11.0867 5.42373 10.8076C2.55234 10.01 0.677966 9.25225 0.677966 5.86242C0.677966 2.31307 3.19043 0 6.6999 0C8.61011 0.0318456 10.4844 0.524363 12.1635 1.4357V1.47558L11.4855 2.67199Z" fill="#22A958"/>
<path d="M17.9469 7.53743C18.9439 6.10173 20.1403 5.62317 21.7754 5.62317C24.9658 5.62317 26.242 7.65706 26.242 10.5683V15.3939C26.2446 15.7212 26.1828 16.0458 26.0599 16.3492C25.9371 16.6526 25.7557 16.9289 25.5261 17.1622C25.2965 17.3955 25.0232 17.5813 24.7218 17.709C24.4204 17.8366 24.0967 17.9037 23.7694 17.9063H22.0546C22.0147 17.9063 22.0147 17.9063 22.0147 17.8664V12.0838C22.0147 10.9273 22.2141 8.93324 20.1004 8.93324C18.3856 8.93324 17.907 10.2094 17.907 11.685V15.354C17.9096 15.6813 17.8478 16.0059 17.7249 16.3094C17.6021 16.6128 17.4207 16.889 17.1911 17.1223C16.9615 17.3556 16.6882 17.5414 16.3868 17.6691C16.0854 17.7968 15.7617 17.8638 15.4344 17.8664H13.7196C13.6797 17.8664 13.6797 17.8664 13.6797 17.8266V5.98209C13.6797 5.94221 13.6797 5.94221 13.7196 5.94221H17.8671C17.907 5.94221 17.907 5.94221 17.907 5.98209L17.9469 7.53743Z" fill="#22A958"/>
<path d="M38.3648 17.9063H36.6898C36.6499 17.9063 36.6499 17.9063 36.6499 17.8664V16.5903C36.6499 16.5504 36.6499 16.5504 36.61 16.5504H36.5701C35.8124 17.7069 34.3767 18.2652 32.9809 18.2652C29.4714 18.2652 26.959 15.3141 26.959 11.9243C26.959 8.53445 29.3917 5.5833 32.9012 5.5833C33.5757 5.56108 34.2474 5.68097 34.8726 5.93518C35.4978 6.18939 36.0626 6.57224 36.5303 7.05887C36.5303 7.09875 36.5701 7.05887 36.5701 7.05887V6.02198C36.5701 5.9821 36.5702 5.9821 36.61 5.9821H40.7576C40.7975 5.9821 40.7975 5.9821 40.7975 6.02198V15.3939C40.838 16.0175 40.6301 16.6318 40.2191 17.1026C39.8081 17.5734 39.2274 17.8623 38.604 17.9063H38.3648ZM31.3857 11.9642C31.3498 12.6355 31.5815 13.2937 32.03 13.7946C32.4785 14.2954 33.1073 14.598 33.7785 14.6361H34.0976C34.7689 14.6822 35.4311 14.4605 35.9393 14.0196C36.4475 13.5786 36.7604 12.9543 36.8094 12.2832V11.9642C36.8366 11.2884 36.5966 10.6291 36.1413 10.1291C35.686 9.62898 35.0521 9.32832 34.3767 9.29217H34.0976C33.4159 9.25734 32.7481 9.4936 32.2401 9.94938C31.732 10.4052 31.4248 11.0434 31.3857 11.7249V11.9642Z" fill="#22A958"/>
<path d="M46.4199 7.37789C46.4597 7.33801 46.4597 7.37789 46.4199 7.37789C46.8353 6.81106 47.3833 6.35472 48.016 6.04881C48.6487 5.74289 49.3467 5.59674 50.049 5.62315C53.5983 5.62315 56.0709 8.5743 56.0709 12.004C56.0709 15.4337 53.6382 18.3051 50.1287 18.3051C49.4451 18.3238 48.7652 18.1986 48.1331 17.9375C47.501 17.6764 46.9309 17.2854 46.4597 16.7896V20.4188C46.4624 20.7461 46.4005 21.0707 46.2777 21.3741C46.1548 21.6775 45.9734 21.9538 45.7438 22.1871C45.5142 22.4204 45.2409 22.6062 44.9395 22.7339C44.6381 22.8616 44.3145 22.9286 43.9872 22.9312H42.2324V6.02196H46.4597L46.4199 7.37789ZM46.2603 11.9641C46.2244 12.6355 46.4561 13.2937 46.9046 13.7946C47.3531 14.2954 47.9819 14.598 48.6532 14.6361H48.9722C49.6435 14.6822 50.3057 14.4605 50.8139 14.0195C51.3222 13.5786 51.635 12.9542 51.6841 12.2832V11.9641C51.7112 11.2884 51.4712 10.6291 51.0159 10.129C50.5606 9.62895 49.9267 9.3283 49.2514 9.29214H48.9722C48.2905 9.25731 47.6228 9.49358 47.1147 9.94936C46.6066 10.4051 46.2995 11.0434 46.2603 11.7248V11.9641Z" fill="#22A958"/>
<path d="M61.0976 7.37789C61.513 6.81106 62.0611 6.35472 62.6937 6.04881C63.3264 5.74289 64.0244 5.59674 64.7267 5.62315C68.2761 5.62315 70.7486 8.5743 70.7486 12.004C70.7486 15.4337 68.3159 18.3051 64.8065 18.3051C64.1331 18.3181 63.4641 18.1941 62.8402 17.9404C62.2163 17.6867 61.6506 17.3088 61.1774 16.8295C61.1774 16.7897 61.1375 16.8295 61.1375 16.8694V20.4188C61.1401 20.7461 61.0782 21.0707 60.9554 21.3741C60.8326 21.6775 60.6512 21.9538 60.4216 22.1871C60.192 22.4204 59.9186 22.6062 59.6172 22.7339C59.3158 22.8616 58.9922 22.9286 58.6649 22.9312H56.95C56.9102 22.9312 56.9102 22.9312 56.9102 22.8913V6.02196C56.9102 5.98208 56.9102 5.98207 56.95 5.98207H61.0976C61.1375 5.98207 61.1375 5.98208 61.1375 6.02196L61.0976 7.37789ZM60.9381 11.9641C60.9022 12.6355 61.1339 13.2937 61.5824 13.7946C62.0309 14.2954 62.6597 14.598 63.3309 14.6361H63.6499C64.3212 14.6822 64.9834 14.4605 65.4917 14.0195C65.9999 13.5786 66.3128 12.9542 66.3618 12.2832V11.9641C66.389 11.2884 66.1489 10.6291 65.6937 10.129C65.2384 9.62895 64.6044 9.3283 63.9291 9.29214H63.6499C62.9683 9.25731 62.3005 9.49358 61.7924 9.94936C61.2843 10.4051 60.9772 11.0434 60.9381 11.7248V11.9641Z" fill="#22A958"/>
<path d="M75.135 11.6451H72.7422L75.6136 0.438686C75.6136 0.398806 75.6136 0.398804 75.6535 0.398804H79.9605C80.0004 0.398804 80.0004 0.398806 80.0004 0.438686L77.6076 9.73081C77.4648 10.2782 77.1448 10.7629 76.6975 11.1093C76.2502 11.4556 75.7007 11.644 75.135 11.6451Z" fill="#22A958"/>
<path d="M71.4665 15.6331C71.4306 16.3045 71.6623 16.9627 72.1108 17.4635C72.5593 17.9644 73.1881 18.267 73.8593 18.3051H74.1784C74.8497 18.3512 75.5119 18.1295 76.0201 17.6885C76.5283 17.2476 76.8412 16.6232 76.8902 15.9522V15.6331C76.9174 14.9574 76.6774 14.2981 76.2221 13.798C75.7668 13.2979 75.1329 12.9973 74.4575 12.9611H74.1784C73.4967 12.9263 72.829 13.1626 72.3209 13.6183C71.8128 14.0741 71.5057 14.7124 71.4665 15.3938V15.6331Z" fill="#22A958"/>
<path d="M0.677734 23.1306H7.45739C9.05261 23.1306 10.2889 23.5294 11.1264 24.2871C11.9639 25.0449 12.3627 26.1615 12.3627 27.6371C12.4048 28.3981 12.2394 29.1562 11.8841 29.8305C11.5456 30.4415 11.0499 30.9509 10.4484 31.3061C11.0315 31.4074 11.5961 31.5956 12.1234 31.8644C12.5639 32.0938 12.946 32.4213 13.24 32.8215C13.5179 33.1909 13.721 33.6108 13.8383 34.0578C13.9632 34.54 14.0302 35.0354 14.0377 35.5334C14.0347 36.286 13.8857 37.0309 13.599 37.7268C13.3197 38.3385 12.9116 38.8826 12.4026 39.322C11.8441 39.757 11.208 40.0818 10.5282 40.2792C9.70603 40.4833 8.86279 40.5904 8.01572 40.5982H0.717615V23.1306H0.677734ZM5.22409 29.99H6.06158C7.49727 29.99 8.21512 29.4317 8.21512 28.3151C8.21512 27.1984 7.49727 26.6401 6.06158 26.6401H5.22409V29.99ZM5.22409 37.1286H6.2211C7.06846 37.1812 7.91613 37.0308 8.69368 36.6899C8.93493 36.5481 9.13295 36.3432 9.26646 36.0973C9.39996 35.8514 9.46391 35.5737 9.45141 35.2941C9.47776 35.0071 9.42018 34.7187 9.28566 34.4638C9.15114 34.2089 8.94549 33.9986 8.69368 33.8584C8.21512 33.5793 7.37763 33.4197 6.2211 33.4197H5.22409V37.1286ZM14.7156 34.5763C14.7064 33.7242 14.8834 32.8803 15.2341 32.1037C15.5828 31.3442 16.0852 30.6652 16.7096 30.1097C17.3804 29.5356 18.1509 29.0895 18.9828 28.7936C20.8302 28.1555 22.8383 28.1555 24.6857 28.7936C25.5176 29.0895 26.2881 29.5356 26.9589 30.1097C27.6052 30.6701 28.1222 31.364 28.4743 32.1436C28.8233 32.9644 28.9998 33.8481 28.9929 34.7399C28.9861 35.6318 28.796 36.5127 28.4345 37.328C28.072 38.1015 27.5565 38.7934 26.919 39.3619C26.2482 39.936 25.4777 40.3821 24.6458 40.678C22.7984 41.3161 20.7903 41.3161 18.9429 40.678C18.119 40.3908 17.36 39.9436 16.7096 39.3619C16.0622 38.7957 15.5567 38.0854 15.2341 37.2881C14.8637 36.4334 14.6866 35.5074 14.7156 34.5763ZM19.1423 34.6162C19.1408 35.0013 19.2224 35.3821 19.3816 35.7328C19.5437 36.049 19.7447 36.3437 19.9798 36.6102C20.2392 36.8542 20.5353 37.056 20.8572 37.2084C21.5228 37.4747 22.2654 37.4747 22.931 37.2084C23.2609 37.0705 23.5594 36.8669 23.8083 36.6102C24.0523 36.3508 24.2542 36.0547 24.4065 35.7328C24.5656 35.3962 24.6473 35.0283 24.6458 34.656C24.6473 34.2965 24.5654 33.9416 24.4065 33.6192C24.2444 33.3029 24.0435 33.0082 23.8083 32.7418C23.5489 32.4978 23.2529 32.2959 22.931 32.1436C22.2654 31.8773 21.5228 31.8773 20.8572 32.1436C20.5272 32.2815 20.2287 32.485 19.9798 32.7418C19.7358 33.0012 19.534 33.2972 19.3816 33.6192C19.223 33.9275 19.141 34.2694 19.1423 34.6162ZM33.4993 34.1775L28.6737 28.7139H34.1374L36.1712 31.1864L38.245 28.7139H43.7086L38.7635 34.1775L44.7455 40.6381H39.1623L36.1314 37.1286L33.0606 40.6381H27.5172L33.4993 34.1775Z" fill="#22A958"/>
</g>
<defs>
<clipPath id="clip0_2523_14646">
<rect width="80" height="41.1565" fill="white"/>
</clipPath>
</defs>
</svg>
